<?xml version="1.0" encoding="utf-8"?>
<!-- Generator: Adobe Illustrator 19.0.0, SVG Export Plug-In . SVG Version: 6.00 Build 0)  -->
<svg version="1.1" id="Layer_1" xmlns="http://www.w3.org/2000/svg" xmlns:xlink="http://www.w3.org/1999/xlink" x="0px" y="0px"
	 viewBox="-151 393.8 291.5 54.1" enable-background="new -151 393.8 291.5 54.1" xml:space="preserve">
<rect id="XMLID_1_" x="-148.2" y="396.5" fill="#D4191F" width="20.9" height="20.9"/>
<rect id="XMLID_3_" x="-148.2" y="419.4" fill="#F5DA13" width="20.9" height="20.9"/>
<rect id="XMLID_20_" x="-124.8" y="396.5" fill="#014979" width="20.9" height="20.9"/>
<rect id="XMLID_18_" x="-124.8" y="419.4" fill="#25733A" width="20.9" height="20.9"/>
<g id="XMLID_4_">
	<polygon points="-81.5,398.2 -98.3,436.5 -92.8,436.5 -81.5,409.5 -70.1,436.5 -64.6,436.5 	"/>
	<path d="M-42.6,413.4c-3.5,0-6.5,1.2-8.6,3.4c-0.9,0.9-2.4,2.9-3,5.9h-3v-8.8h-4.7v22.5h4.7v-9.3h2.8c0.4,2.6,1.5,4.5,2.4,5.7
		c1.5,2,4.3,4.3,9.3,4.3c6.9,0,11.9-5,11.9-11.8C-30.7,418.4-35.7,413.4-42.6,413.4z M-35.6,425.2c0,5.2-3.7,7.5-7.1,7.5
		c-3.3,0-6.9-2.3-6.9-7.5c0-5.1,3.5-7.5,6.9-7.6C-39.3,417.6-35.6,420-35.6,425.2z"/>
	<polygon points="-17.9,424 -8,413.9 -14,413.9 -22,422 -22,413.9 -26.7,413.9 -26.7,436.5 -22,436.5 -22,427.8 -21.4,427.2 
		-13.2,436.5 -7,436.5 	"/>
	<path d="M57,416.1c-2.4-2.6-5.7-2.9-7-2.9c-2.5,0-5,1-6.7,2.6c-1.7-1.6-4.2-2.6-6.7-2.6c-1.3,0-4.5,0.3-7,2.9c-1.8,2-2.1,4-2.1,6.8
		v13.5h4.7v-13.1c0-1.4,0-3,0.9-4.3c0.7-1,1.9-1.5,3.4-1.5c1.9,0,2.9,0.9,3.4,1.5c0.9,1.2,0.9,2.8,0.9,4.3v13.1h4.7v-14.1
		c0-1.5,0.3-2.5,0.9-3.3c0.7-1,1.9-1.5,3.4-1.5c1.9,0,2.9,0.9,3.4,1.5c0.9,1.2,1.2,2.8,1.2,4.3l0,13.1h4.7V423
		C59.1,420.2,58.8,418.1,57,416.1z"/>
	<path d="M74.1,413.2c-5.3,0-11.1,4.4-11.1,14v21.3h4.5V434c1.6,2.1,3.9,3,7.3,3c6.5,0,11.2-5,11.2-11.9
		C86,418,81.2,413.2,74.1,413.2z M81.5,425c0,4.4-3,7.4-7.4,7.4c-3.2,0-6.6-2.6-6.6-7.4c0-4.6,3.4-7.3,6.6-7.3
		C78.5,417.7,81.5,420.6,81.5,425z"/>
	<path d="M100.6,413.3c-6.9,0-11.9,5-11.9,11.9c0,3.3,1.2,6.4,3.4,8.5c2.1,2.1,5.1,3.3,8.3,3.3c0.1,0,0.1,0,0.2,0
		c6.9,0,11.9-5,11.9-11.8C112.5,418.3,107.5,413.3,100.6,413.3z M107.7,425.2c0,5.2-3.7,7.5-7.1,7.5c-3.4,0-7.1-2.3-7.1-7.5
		c0-5.2,3.7-7.6,7.1-7.6C104.1,417.6,107.7,419.9,107.7,425.2z"/>
	<g>
		<path d="M125,411.7c3.8,0,6.8-2,8-5.3l0.2-0.5l-4.1-1.6l-0.2,0.5c-0.5,1.7-2,2.7-3.9,2.7c-2,0-3.4-1-3.9-2.7l-0.1-0.5l-4.1,1.6
			l0.2,0.5C118.2,409.6,121.3,411.7,125,411.7z"/>
		<path d="M129.3,413.9V427c0,1.4,0,3-0.9,4.3c-0.7,1-1.9,1.5-3.4,1.5c-1.9,0-2.9-0.9-3.4-1.5c-0.9-1.2-0.9-2.8-0.9-4.3v-0.5l0-12.6
			h-4.9v13.5c0,2.8,0.3,4.8,2.1,6.8c2.4,2.6,5.7,2.9,7,2.9s4.5-0.3,7-2.9c1.8-2,2.1-4,2.1-6.8v-13.5H129.3z"/>
	</g>
</g>
<g>
	<path d="M22.8,428c-0.8,0.8-2.1,1.9-3.9,2.8c-1.2,0.6-3.5,1.5-6.2,1.5c-6.5,0-13.5-4.8-13.5-13.6c0-8,5.8-14,13.4-14
		c1.7,0,3.9,0.5,5.8,1.4c2,0.9,3.6,2.5,4.3,3.1l0.9,0.9v-6.2l-0.2-0.1c-3.1-2.3-6.6-3.5-10.5-3.5c-10.6,0-18.6,8-18.6,18.5
		c0,10.4,7.9,18.3,18.4,18.3c2.3,0,6.7-0.5,10.8-3.5l0.2-0.1v-6.3L22.8,428z"/>
	<path d="M12.9,412.7c1.5,0,3.6,0.6,5,2.4l0.2,0.2h0.8V411l-0.2-0.1c-1.1-0.8-3-1.8-5.7-1.8c-5.6,0-9.7,4-9.7,9.6
		c0,5.5,4.1,9.5,9.7,9.5c1.5,0,3.7-0.3,5.8-1.9l0.2-0.1v-5.2l-0.9,1c-1.3,1.6-3.3,2.5-5.2,2.5c-2.7,0-5.6-1.8-5.6-5.9
		C7.3,414.5,10.1,412.7,12.9,412.7z"/>
</g>
</svg>
